<svg width="109" height="52" viewBox="0 0 109 52" fill="none" xmlns="http://www.w3.org/2000/svg">
<rect x="1" y="1" width="107" height="50" rx="25" fill="black" fill-opacity="0.3"/>
<rect x="1" y="1" width="107" height="50" rx="25" stroke="url(#paint0_linear_298_206)" stroke-width="2"/>
<path d="M23.12 32V20.48H31.944V32H30.768V21.608H24.296V32H23.12ZM38.0625 32.24C37.2678 32.24 36.5958 32.04 36.0465 31.64C35.4972 31.2347 35.0812 30.688 34.7985 30C34.5158 29.3067 34.3745 28.5307 34.3745 27.672C34.3745 26.7973 34.5158 26.0187 34.7985 25.336C35.0865 24.648 35.5078 24.1067 36.0625 23.712C36.6172 23.3173 37.2998 23.12 38.1105 23.12C38.8998 23.12 39.5772 23.32 40.1425 23.72C40.7078 24.12 41.1398 24.664 41.4385 25.352C41.7425 26.04 41.8945 26.8133 41.8945 27.672C41.8945 28.536 41.7425 29.312 41.4385 30C41.1345 30.688 40.6972 31.2347 40.1265 31.64C39.5558 32.04 38.8678 32.24 38.0625 32.24ZM34.1745 35.84V23.36H35.2305V29.864H35.3585V35.84H34.1745ZM37.9425 31.144C38.5452 31.144 39.0465 30.992 39.4465 30.688C39.8465 30.384 40.1452 29.9707 40.3425 29.448C40.5452 28.92 40.6465 28.328 40.6465 27.672C40.6465 27.0213 40.5478 26.4347 40.3505 25.912C40.1532 25.3893 39.8518 24.976 39.4465 24.672C39.0465 24.368 38.5372 24.216 37.9185 24.216C37.3158 24.216 36.8145 24.3627 36.4145 24.656C36.0198 24.9493 35.7238 25.3573 35.5265 25.88C35.3292 26.3973 35.2305 26.9947 35.2305 27.672C35.2305 28.3387 35.3292 28.936 35.5265 29.464C35.7238 29.9867 36.0225 30.3973 36.4225 30.696C36.8225 30.9947 37.3292 31.144 37.9425 31.144ZM47.2593 32.24C46.4006 32.24 45.6673 32.0453 45.0593 31.656C44.4513 31.2667 43.9846 30.728 43.6593 30.04C43.3339 29.352 43.1713 28.5627 43.1713 27.672C43.1713 26.7653 43.3366 25.9707 43.6673 25.288C43.9979 24.6053 44.4673 24.0747 45.0753 23.696C45.6886 23.312 46.4166 23.12 47.2593 23.12C48.1233 23.12 48.8593 23.3147 49.4673 23.704C50.0806 24.088 50.5473 24.624 50.8673 25.312C51.1926 25.9947 51.3553 26.7813 51.3553 27.672C51.3553 28.5787 51.1926 29.376 50.8673 30.064C50.5419 30.7467 50.0726 31.28 49.4593 31.664C48.8459 32.048 48.1126 32.24 47.2593 32.24ZM47.2593 31.112C48.2193 31.112 48.9339 30.7947 49.4033 30.16C49.8726 29.52 50.1073 28.6907 50.1073 27.672C50.1073 26.6267 49.8699 25.7947 49.3953 25.176C48.9259 24.5573 48.2139 24.248 47.2593 24.248C46.6139 24.248 46.0806 24.3947 45.6593 24.688C45.2433 24.976 44.9313 25.3787 44.7233 25.896C44.5206 26.408 44.4193 27 44.4193 27.672C44.4193 28.712 44.6593 29.5467 45.1393 30.176C45.6193 30.8 46.3259 31.112 47.2593 31.112ZM53.12 32V23.36H59.04V24.488H54.296V32H53.12ZM60.5495 32V23.36H61.7255V27.112H66.5975V23.36H67.7735V32H66.5975V28.24H61.7255V32H60.5495ZM73.6186 32.24C72.76 32.24 72.0266 32.0453 71.4186 31.656C70.8106 31.2667 70.344 30.728 70.0186 30.04C69.6933 29.352 69.5306 28.5627 69.5306 27.672C69.5306 26.7653 69.696 25.9707 70.0266 25.288C70.3573 24.6053 70.8266 24.0747 71.4346 23.696C72.048 23.312 72.776 23.12 73.6186 23.12C74.4826 23.12 75.2186 23.3147 75.8266 23.704C76.44 24.088 76.9066 24.624 77.2266 25.312C77.552 25.9947 77.7146 26.7813 77.7146 27.672C77.7146 28.5787 77.552 29.376 77.2266 30.064C76.9013 30.7467 76.432 31.28 75.8186 31.664C75.2053 32.048 74.472 32.24 73.6186 32.24ZM73.6186 31.112C74.5786 31.112 75.2933 30.7947 75.7626 30.16C76.232 29.52 76.4666 28.6907 76.4666 27.672C76.4666 26.6267 76.2293 25.7947 75.7546 25.176C75.2853 24.5573 74.5733 24.248 73.6186 24.248C72.9733 24.248 72.44 24.3947 72.0186 24.688C71.6026 24.976 71.2906 25.3787 71.0826 25.896C70.88 26.408 70.7786 27 70.7786 27.672C70.7786 28.712 71.0186 29.5467 71.4986 30.176C71.9786 30.8 72.6853 31.112 73.6186 31.112ZM82.4351 32.24C81.5658 32.24 80.8058 32.0507 80.1551 31.672C79.5098 31.288 79.0005 30.7573 78.6271 30.08L79.5711 29.48C79.8858 30.0133 80.2778 30.4187 80.7471 30.696C81.2165 30.9733 81.7551 31.112 82.3631 31.112C82.9978 31.112 83.5071 30.9653 83.8911 30.672C84.2751 30.3787 84.4671 29.976 84.4671 29.464C84.4671 29.112 84.3845 28.832 84.2191 28.624C84.0591 28.416 83.8138 28.2667 83.4831 28.176C83.1578 28.0853 82.7498 28.04 82.2591 28.04H81.2351V27.032H82.2431C82.8405 27.032 83.3205 26.9253 83.6831 26.712C84.0511 26.4933 84.2351 26.152 84.2351 25.688C84.2351 25.1973 84.0511 24.8347 83.6831 24.6C83.3205 24.36 82.8858 24.24 82.3791 24.24C81.8671 24.24 81.3818 24.3467 80.9231 24.56C80.4698 24.768 80.0885 25.0373 79.7791 25.368L79.0271 24.576C79.4591 24.1013 79.9631 23.7413 80.5391 23.496C81.1205 23.2453 81.7631 23.12 82.4671 23.12C83.0218 23.12 83.5231 23.2187 83.9711 23.416C84.4245 23.608 84.7818 23.8907 85.0431 24.264C85.3098 24.6373 85.4431 25.0853 85.4431 25.608C85.4431 26.0987 85.3231 26.5227 85.0831 26.88C84.8485 27.2373 84.5151 27.5333 84.0831 27.768L84.0191 27.328C84.3925 27.3973 84.7018 27.5467 84.9471 27.776C85.1925 28.0053 85.3738 28.28 85.4911 28.6C85.6085 28.92 85.6671 29.2453 85.6671 29.576C85.6671 30.1253 85.5231 30.6 85.2351 31C84.9525 31.3947 84.5658 31.7013 84.0751 31.92C83.5898 32.1333 83.0431 32.24 82.4351 32.24Z" fill="white"/>
<defs>
<linearGradient id="paint0_linear_298_206" x1="-15.5464" y1="8.5" x2="169.967" y2="46.4669" gradientUnits="userSpaceOnUse">
<stop stop-color="#95359E"/>
<stop offset="0.430918" stop-color="#F15AFF"/>
<stop offset="1" stop-color="#E5ECED" stop-opacity="0"/>
</linearGradient>
</defs>
</svg>
