<svg width="114" height="52" viewBox="0 0 114 52" fill="none" xmlns="http://www.w3.org/2000/svg">
<rect x="1" y="1" width="112" height="50" rx="25" fill="black" fill-opacity="0.3"/>
<rect x="1" y="1" width="112" height="50" rx="25" stroke="url(#paint0_linear_298_209)" stroke-width="2"/>
<path d="M23.12 32V20.48H24.2L28.728 30.168L33.232 20.48H34.328V31.992H33.208V23.104L29.104 32H28.344L24.248 23.104V32H23.12ZM40.2291 32.24C39.3865 32.24 38.6558 32.0533 38.0371 31.68C37.4238 31.3067 36.9465 30.7813 36.6051 30.104C36.2638 29.4267 36.0931 28.632 36.0931 27.72C36.0931 26.776 36.2611 25.96 36.5971 25.272C36.9331 24.584 37.4051 24.0533 38.0131 23.68C38.6265 23.3067 39.3491 23.12 40.1811 23.12C41.0345 23.12 41.7625 23.3173 42.3651 23.712C42.9678 24.1013 43.4238 24.6613 43.7331 25.392C44.0425 26.1227 44.1838 26.9947 44.1571 28.008H42.9571V27.592C42.9358 26.472 42.6931 25.6267 42.2291 25.056C41.7705 24.4853 41.0985 24.2 40.2131 24.2C39.2851 24.2 38.5731 24.5013 38.0771 25.104C37.5865 25.7067 37.3411 26.5653 37.3411 27.68C37.3411 28.768 37.5865 29.6133 38.0771 30.216C38.5731 30.8133 39.2745 31.112 40.1811 31.112C40.7998 31.112 41.3385 30.9707 41.7971 30.688C42.2611 30.4 42.6265 29.9867 42.8931 29.448L43.9891 29.872C43.6478 30.624 43.1438 31.208 42.4771 31.624C41.8158 32.0347 41.0665 32.24 40.2291 32.24ZM36.9251 28.008V27.024H43.5251V28.008H36.9251ZM48.1671 32V24.448H45.1031V23.36H52.4071V24.448H49.3431V32H48.1671ZM57.5885 32.24C56.7458 32.24 56.0152 32.0533 55.3965 31.68C54.7832 31.3067 54.3058 30.7813 53.9645 30.104C53.6232 29.4267 53.4525 28.632 53.4525 27.72C53.4525 26.776 53.6205 25.96 53.9565 25.272C54.2925 24.584 54.7645 24.0533 55.3725 23.68C55.9858 23.3067 56.7085 23.12 57.5405 23.12C58.3938 23.12 59.1218 23.3173 59.7245 23.712C60.3272 24.1013 60.7832 24.6613 61.0925 25.392C61.4018 26.1227 61.5432 26.9947 61.5165 28.008H60.3165V27.592C60.2952 26.472 60.0525 25.6267 59.5885 25.056C59.1298 24.4853 58.4578 24.2 57.5725 24.2C56.6445 24.2 55.9325 24.5013 55.4365 25.104C54.9458 25.7067 54.7005 26.5653 54.7005 27.68C54.7005 28.768 54.9458 29.6133 55.4365 30.216C55.9325 30.8133 56.6338 31.112 57.5405 31.112C58.1592 31.112 58.6978 30.9707 59.1565 30.688C59.6205 30.4 59.9858 29.9867 60.2525 29.448L61.3485 29.872C61.0072 30.624 60.5032 31.208 59.8365 31.624C59.1752 32.0347 58.4258 32.24 57.5885 32.24ZM54.2845 28.008V27.024H60.8845V28.008H54.2845ZM66.8999 32.24C66.0412 32.24 65.3079 32.0453 64.6999 31.656C64.0919 31.2667 63.6252 30.728 63.2999 30.04C62.9745 29.352 62.8119 28.5627 62.8119 27.672C62.8119 26.7653 62.9772 25.9707 63.3079 25.288C63.6385 24.6053 64.1079 24.0747 64.7159 23.696C65.3292 23.312 66.0572 23.12 66.8999 23.12C67.7639 23.12 68.4999 23.3147 69.1079 23.704C69.7212 24.088 70.1879 24.624 70.5079 25.312C70.8332 25.9947 70.9959 26.7813 70.9959 27.672C70.9959 28.5787 70.8332 29.376 70.5079 30.064C70.1825 30.7467 69.7132 31.28 69.0999 31.664C68.4865 32.048 67.7532 32.24 66.8999 32.24ZM66.8999 31.112C67.8599 31.112 68.5745 30.7947 69.0439 30.16C69.5132 29.52 69.7479 28.6907 69.7479 27.672C69.7479 26.6267 69.5105 25.7947 69.0359 25.176C68.5665 24.5573 67.8545 24.248 66.8999 24.248C66.2545 24.248 65.7212 24.3947 65.2999 24.688C64.8839 24.976 64.5719 25.3787 64.3639 25.896C64.1612 26.408 64.0599 27 64.0599 27.672C64.0599 28.712 64.2999 29.5467 64.7799 30.176C65.2599 30.8 65.9665 31.112 66.8999 31.112ZM76.6406 32.24C75.846 32.24 75.174 32.04 74.6246 31.64C74.0753 31.2347 73.6593 30.688 73.3766 30C73.094 29.3067 72.9526 28.5307 72.9526 27.672C72.9526 26.7973 73.094 26.0187 73.3766 25.336C73.6646 24.648 74.086 24.1067 74.6406 23.712C75.1953 23.3173 75.878 23.12 76.6886 23.12C77.478 23.12 78.1553 23.32 78.7206 23.72C79.286 24.12 79.718 24.664 80.0166 25.352C80.3206 26.04 80.4726 26.8133 80.4726 27.672C80.4726 28.536 80.3206 29.312 80.0166 30C79.7126 30.688 79.2753 31.2347 78.7046 31.64C78.134 32.04 77.446 32.24 76.6406 32.24ZM72.7526 35.84V23.36H73.8086V29.864H73.9366V35.84H72.7526ZM76.5206 31.144C77.1233 31.144 77.6246 30.992 78.0246 30.688C78.4246 30.384 78.7233 29.9707 78.9206 29.448C79.1233 28.92 79.2246 28.328 79.2246 27.672C79.2246 27.0213 79.126 26.4347 78.9286 25.912C78.7313 25.3893 78.43 24.976 78.0246 24.672C77.6246 24.368 77.1153 24.216 76.4966 24.216C75.894 24.216 75.3926 24.3627 74.9926 24.656C74.598 24.9493 74.302 25.3573 74.1046 25.88C73.9073 26.3973 73.8086 26.9947 73.8086 27.672C73.8086 28.3387 73.9073 28.936 74.1046 29.464C74.302 29.9867 74.6006 30.3973 75.0006 30.696C75.4006 30.9947 75.9073 31.144 76.5206 31.144ZM82.2374 32L82.2214 23.36H83.4054V26.616H84.9094C85.16 26.616 85.4054 26.6213 85.6454 26.632C85.8854 26.6427 86.1014 26.664 86.2934 26.696C86.72 26.7813 87.0987 26.9253 87.4294 27.128C87.76 27.3307 88.0214 27.6107 88.2134 27.968C88.4054 28.32 88.5014 28.7653 88.5014 29.304C88.5014 30.0453 88.3094 30.6293 87.9254 31.056C87.5414 31.4827 87.0587 31.76 86.4774 31.888C86.2587 31.936 86.0214 31.968 85.7654 31.984C85.5094 31.9947 85.2587 32 85.0134 32H82.2374ZM83.4054 30.992H84.9654C85.1414 30.992 85.3414 30.9867 85.5654 30.976C85.7894 30.9653 85.9867 30.936 86.1574 30.888C86.4454 30.808 86.704 30.648 86.9334 30.408C87.168 30.1627 87.2854 29.7947 87.2854 29.304C87.2854 28.8187 87.1734 28.4533 86.9494 28.208C86.7254 27.9573 86.4267 27.792 86.0534 27.712C85.8827 27.6747 85.7014 27.6507 85.5094 27.64C85.3227 27.6293 85.1414 27.624 84.9654 27.624H83.4054V30.992ZM89.5334 32V23.36H90.7094V32H89.5334Z" fill="white"/>
<defs>
<linearGradient id="paint0_linear_298_209" x1="-11.1237" y1="-3.5" x2="172.644" y2="48.3142" gradientUnits="userSpaceOnUse">
<stop stop-color="#95359E"/>
<stop offset="0.430918" stop-color="#F15AFF"/>
<stop offset="1" stop-color="#E5ECED" stop-opacity="0"/>
</linearGradient>
</defs>
</svg>
