<svg width="80" height="52" viewBox="0 0 80 52" fill="none" xmlns="http://www.w3.org/2000/svg">
<rect x="1" y="1" width="78" height="50" rx="25" fill="black" fill-opacity="0.3"/>
<rect x="1" y="1" width="78" height="50" rx="25" stroke="url(#paint0_linear_298_203)" stroke-width="2"/>
<path d="M23.12 32V20.48H24.296V25.92L29.552 20.48H31.056L25.688 26.04L31.496 32H29.96L24.296 26.24V32H23.12ZM33.1332 35.84L34.8053 31.304L34.8293 32.648L31.0452 23.36H32.2933L35.3973 31.128H34.8853L37.7493 23.36H38.9493L34.3093 35.84H33.1332ZM39.3863 33.92V30.992C39.8769 30.992 40.2289 30.8347 40.4423 30.52C40.6556 30.2 40.8289 29.6907 40.9622 28.992C41.0529 28.5387 41.1276 28.0507 41.1863 27.528C41.2449 27.0053 41.2956 26.408 41.3383 25.736C41.3809 25.0587 41.4209 24.2667 41.4583 23.36H47.1702V30.992H48.0023V33.92H46.8663V32H40.5143V33.92H39.3863ZM41.3783 30.992H46.0023V24.368H42.5463C42.5303 24.7733 42.5063 25.2027 42.4743 25.656C42.4476 26.1093 42.4129 26.5627 42.3703 27.016C42.3329 27.4693 42.2876 27.896 42.2343 28.296C42.1863 28.6907 42.1276 29.0373 42.0583 29.336C41.9783 29.72 41.8903 30.048 41.7943 30.32C41.7036 30.592 41.5649 30.816 41.3783 30.992ZM52.0764 32.24C51.4257 32.24 50.879 32.1227 50.4364 31.888C49.999 31.6533 49.671 31.3413 49.4524 30.952C49.2337 30.5627 49.1244 30.1387 49.1244 29.68C49.1244 29.2107 49.2177 28.8107 49.4044 28.48C49.5964 28.144 49.855 27.8693 50.1804 27.656C50.511 27.4427 50.8924 27.28 51.3244 27.168C51.7617 27.0613 52.2444 26.968 52.7724 26.888C53.3057 26.8027 53.8257 26.7307 54.3324 26.672C54.8444 26.608 55.2924 26.5467 55.6764 26.488L55.2604 26.744C55.2764 25.8907 55.111 25.2587 54.7644 24.848C54.4177 24.4373 53.815 24.232 52.9564 24.232C52.3644 24.232 51.863 24.3653 51.4524 24.632C51.047 24.8987 50.7617 25.32 50.5964 25.896L49.4524 25.56C49.6497 24.7867 50.047 24.1867 50.6444 23.76C51.2417 23.3333 52.0177 23.12 52.9724 23.12C53.7617 23.12 54.431 23.2693 54.9804 23.568C55.535 23.8613 55.927 24.288 56.1564 24.848C56.263 25.0987 56.3324 25.3787 56.3644 25.688C56.3964 25.9973 56.4124 26.312 56.4124 26.632V32H55.3644V29.832L55.6684 29.96C55.375 30.7013 54.919 31.2667 54.3004 31.656C53.6817 32.0453 52.9404 32.24 52.0764 32.24ZM52.2124 31.224C52.7617 31.224 53.2417 31.1253 53.6524 30.928C54.063 30.7307 54.3937 30.4613 54.6444 30.12C54.895 29.7733 55.0577 29.384 55.1324 28.952C55.1964 28.6747 55.231 28.3707 55.2364 28.04C55.2417 27.704 55.2444 27.4533 55.2444 27.288L55.6924 27.52C55.2924 27.5733 54.8577 27.6267 54.3884 27.68C53.9244 27.7333 53.4657 27.7947 53.0124 27.864C52.5644 27.9333 52.159 28.016 51.7964 28.112C51.551 28.1813 51.3137 28.28 51.0844 28.408C50.855 28.5307 50.6657 28.696 50.5164 28.904C50.3724 29.112 50.3004 29.3707 50.3004 29.68C50.3004 29.9307 50.3617 30.1733 50.4844 30.408C50.6124 30.6427 50.815 30.8373 51.0924 30.992C51.375 31.1467 51.7484 31.224 52.2124 31.224Z" fill="white"/>
<defs>
<linearGradient id="paint0_linear_298_203" x1="-15.4845" y1="0.999999" x2="131.847" y2="25.8827" gradientUnits="userSpaceOnUse">
<stop stop-color="#95359E"/>
<stop offset="0.430918" stop-color="#F15AFF"/>
<stop offset="1" stop-color="#E5ECED" stop-opacity="0"/>
</linearGradient>
</defs>
</svg>
