<svg width="117" height="66" viewBox="0 0 117 66" fill="none" xmlns="http://www.w3.org/2000/svg">
<rect x="10" y="8" width="97" height="50" rx="25" fill="black" fill-opacity="0.3"/>
<rect x="10" y="8" width="97" height="50" rx="25" stroke="url(#paint0_linear_5_105)" stroke-width="2"/>
<path d="M39.968 39H38.8V34.624H34.968L34.56 34.528C33.7067 34.3627 33.0507 33.96 32.592 33.32C32.1333 32.68 31.904 31.9253 31.904 31.056C31.904 30.4533 32.0133 29.904 32.232 29.408C32.4507 28.912 32.768 28.5013 33.184 28.176C33.6053 27.8453 34.1147 27.6347 34.712 27.544C34.8613 27.5173 35.0053 27.5013 35.144 27.496C35.2827 27.4853 35.408 27.48 35.52 27.48H39.968V39ZM32.992 39H31.64L34.136 33.88L35.264 34.312L32.992 39ZM38.8 33.504V28.608H35.552C35.4613 28.608 35.3493 28.6133 35.216 28.624C35.088 28.6293 34.9627 28.6453 34.84 28.672C34.4453 28.7573 34.12 28.92 33.864 29.16C33.6133 29.4 33.4267 29.688 33.304 30.024C33.1813 30.3547 33.12 30.6987 33.12 31.056C33.12 31.4133 33.1813 31.7573 33.304 32.088C33.4267 32.4187 33.6133 32.704 33.864 32.944C34.12 33.184 34.4453 33.3467 34.84 33.432C34.9627 33.4587 35.088 33.4773 35.216 33.488C35.3493 33.4987 35.4613 33.504 35.552 33.504H38.8ZM42.2058 39L42.2138 30.36H43.3978V34.52L47.2538 30.36H48.8218L44.7738 34.68L49.3498 39H47.6378L43.3978 34.84V39H42.2058ZM53.603 39.24C52.7443 39.24 52.011 39.0453 51.403 38.656C50.795 38.2667 50.3283 37.728 50.003 37.04C49.6777 36.352 49.515 35.5627 49.515 34.672C49.515 33.7653 49.6803 32.9707 50.011 32.288C50.3417 31.6053 50.811 31.0747 51.419 30.696C52.0323 30.312 52.7603 30.12 53.603 30.12C54.467 30.12 55.203 30.3147 55.811 30.704C56.4243 31.088 56.891 31.624 57.211 32.312C57.5363 32.9947 57.699 33.7813 57.699 34.672C57.699 35.5787 57.5363 36.376 57.211 37.064C56.8857 37.7467 56.4163 38.28 55.803 38.664C55.1897 39.048 54.4563 39.24 53.603 39.24ZM53.603 38.112C54.563 38.112 55.2777 37.7947 55.747 37.16C56.2163 36.52 56.451 35.6907 56.451 34.672C56.451 33.6267 56.2137 32.7947 55.739 32.176C55.2697 31.5573 54.5577 31.248 53.603 31.248C52.9577 31.248 52.4243 31.3947 52.003 31.688C51.587 31.976 51.275 32.3787 51.067 32.896C50.8643 33.408 50.763 34 50.763 34.672C50.763 35.712 51.003 36.5467 51.483 37.176C51.963 37.8 52.6697 38.112 53.603 38.112ZM63.3438 39.24C62.5491 39.24 61.8771 39.04 61.3278 38.64C60.7784 38.2347 60.3624 37.688 60.0798 37C59.7971 36.3067 59.6558 35.5307 59.6558 34.672C59.6558 33.7973 59.7971 33.0187 60.0798 32.336C60.3678 31.648 60.7891 31.1067 61.3438 30.712C61.8984 30.3173 62.5811 30.12 63.3918 30.12C64.1811 30.12 64.8584 30.32 65.4238 30.72C65.9891 31.12 66.4211 31.664 66.7198 32.352C67.0238 33.04 67.1758 33.8133 67.1758 34.672C67.1758 35.536 67.0238 36.312 66.7198 37C66.4158 37.688 65.9784 38.2347 65.4078 38.64C64.8371 39.04 64.1491 39.24 63.3438 39.24ZM59.4558 42.84V30.36H60.5118V36.864H60.6398V42.84H59.4558ZM63.2238 38.144C63.8264 38.144 64.3278 37.992 64.7278 37.688C65.1278 37.384 65.4264 36.9707 65.6238 36.448C65.8264 35.92 65.9278 35.328 65.9278 34.672C65.9278 34.0213 65.8291 33.4347 65.6318 32.912C65.4344 32.3893 65.1331 31.976 64.7278 31.672C64.3278 31.368 63.8184 31.216 63.1998 31.216C62.5971 31.216 62.0958 31.3627 61.6958 31.656C61.3011 31.9493 61.0051 32.3573 60.8078 32.88C60.6104 33.3973 60.5118 33.9947 60.5118 34.672C60.5118 35.3387 60.6104 35.936 60.8078 36.464C61.0051 36.9867 61.3038 37.3973 61.7038 37.696C62.1038 37.9947 62.6104 38.144 63.2238 38.144ZM68.9405 39L68.9245 30.36H70.1085V33.616H72.1325C72.3832 33.616 72.6285 33.6213 72.8685 33.632C73.1138 33.6427 73.3298 33.664 73.5165 33.696C73.9432 33.776 74.3218 33.9173 74.6525 34.12C74.9885 34.3227 75.2498 34.6027 75.4365 34.96C75.6285 35.3173 75.7245 35.7653 75.7245 36.304C75.7245 37.0453 75.5325 37.6293 75.1485 38.056C74.7698 38.4827 74.2898 38.76 73.7085 38.888C73.4898 38.936 73.2525 38.968 72.9965 38.984C72.7405 38.9947 72.4872 39 72.2365 39H68.9405ZM70.1085 37.992H72.1885C72.3698 37.992 72.5725 37.9867 72.7965 37.976C73.0205 37.9653 73.2178 37.936 73.3885 37.888C73.6712 37.808 73.9272 37.648 74.1565 37.408C74.3912 37.1627 74.5085 36.7947 74.5085 36.304C74.5085 35.8187 74.3965 35.4533 74.1725 35.208C73.9485 34.9573 73.6498 34.792 73.2765 34.712C73.1112 34.6747 72.9325 34.6507 72.7405 34.64C72.5485 34.6293 72.3645 34.624 72.1885 34.624H70.1085V37.992ZM82.6905 39V28.792L80.5225 30.096V28.776L82.6905 27.48H83.8825V39H82.6905Z" fill="white"/>
<defs>
<linearGradient id="paint0_linear_5_105" x1="-10.5" y1="8" x2="169.985" y2="45.9069" gradientUnits="userSpaceOnUse">
<stop stop-color="#95359E"/>
<stop offset="0.430918" stop-color="#F15AFF"/>
<stop offset="1" stop-color="#E5ECED" stop-opacity="0"/>
</linearGradient>
</defs>
</svg>
