<svg width="1440" height="1030" viewBox="0 0 1440 1030" fill="none" xmlns="http://www.w3.org/2000/svg">
<g filter="url(#filter0_f_43_93)">
<path d="M720.5 100L734.863 356.701L795.604 102.273L763.432 358.436L869.885 109.069L791.531 361.885L942.529 120.312L818.851 367.013L1012.74 135.879L845.094 373.761L1079.75 155.599L869.972 382.057L1142.82 179.258L893.212 391.81L1201.27 206.595L914.56 402.912L1254.45 237.311L933.782 415.243L1301.78 271.069L950.667 428.666L1342.74 307.5L965.03 443.035L1376.88 346.204L976.714 458.193L1403.83 386.758L985.591 473.973L1423.3 428.717L991.564 490.203L1435.06 471.621L994.566 506.704L1439 515L994.566 523.296L1435.06 558.379L991.564 539.797L1423.3 601.283L985.591 556.027L1403.83 643.242L976.714 571.807L1376.88 683.796L965.03 586.965L1342.74 722.5L950.667 601.334L1301.78 758.931L933.782 614.757L1254.45 792.689L914.56 627.088L1201.27 823.405L893.212 638.19L1142.82 850.742L869.972 647.943L1079.75 874.401L845.094 656.239L1012.74 894.121L818.851 662.987L942.529 909.688L791.531 668.115L869.885 920.931L763.432 671.564L795.604 927.727L734.863 673.299L720.5 930L706.137 673.299L645.396 927.727L677.568 671.564L571.115 920.931L649.469 668.115L498.471 909.688L622.149 662.987L428.26 894.121L595.906 656.239L361.25 874.401L571.028 647.943L298.176 850.742L547.788 638.19L239.73 823.405L526.44 627.088L186.55 792.689L507.218 614.757L139.221 758.931L490.333 601.334L98.2607 722.5L475.97 586.965L64.1176 683.796L464.286 571.807L37.1659 643.242L455.409 556.027L17.7009 601.283L449.436 539.797L5.93604 558.379L446.434 523.296L2 515L446.434 506.704L5.93604 471.621L449.436 490.203L17.7009 428.717L455.409 473.973L37.1659 386.758L464.286 458.193L64.1176 346.204L475.97 443.035L98.2607 307.5L490.333 428.666L139.221 271.069L507.218 415.243L186.55 237.311L526.44 402.912L239.73 206.595L547.788 391.81L298.176 179.258L571.028 382.057L361.25 155.599L595.906 373.761L428.26 135.879L622.149 367.013L498.471 120.312L649.469 361.885L571.115 109.069L677.568 358.436L645.396 102.273L706.137 356.701L720.5 100Z" fill="#F15AFF"/>
</g>
<defs>
<filter id="filter0_f_43_93" x="-98" y="0" width="1637" height="1030" filterUnits="userSpaceOnUse" color-interpolation-filters="sRGB">
<feFlood flood-opacity="0" result="BackgroundImageFix"/>
<feBlend mode="normal" in="SourceGraphic" in2="BackgroundImageFix" result="shape"/>
<feGaussianBlur stdDeviation="50" result="effect1_foregroundBlur_43_93"/>
</filter>
</defs>
</svg>
