<svg width="1440" height="1599" viewBox="0 0 1440 1599" fill="none" xmlns="http://www.w3.org/2000/svg">
<g filter="url(#filter0_f_5_68)">
<path d="M717.5 200L729.484 570.825L780.165 203.284L753.322 573.331L842.143 213.101L776.767 578.314L902.756 229.342L799.562 585.721L961.339 251.829L821.459 595.47L1017.25 280.318L842.216 607.454L1069.88 314.494L861.607 621.542L1118.64 353.985L879.419 637.581L1163.02 398.356L895.458 655.393L1202.51 447.123L909.546 674.784L1236.68 499.75L921.53 695.541L1265.17 555.661L931.279 717.438L1287.66 614.244L938.686 740.233L1303.9 674.857L943.669 763.678L1313.72 736.835L946.175 787.516L1317 799.5L946.175 811.484L1313.72 862.165L943.669 835.322L1303.9 924.143L938.686 858.767L1287.66 984.756L931.279 881.562L1265.17 1043.34L921.53 903.459L1236.68 1099.25L909.546 924.216L1202.51 1151.88L895.458 943.607L1163.02 1200.64L879.419 961.419L1118.64 1245.02L861.607 977.458L1069.88 1284.51L842.216 991.546L1017.25 1318.68L821.459 1003.53L961.339 1347.17L799.562 1013.28L902.756 1369.66L776.767 1020.69L842.143 1385.9L753.322 1025.67L780.165 1395.72L729.484 1028.17L717.5 1399L705.516 1028.17L654.835 1395.72L681.678 1025.67L592.857 1385.9L658.233 1020.69L532.244 1369.66L635.438 1013.28L473.661 1347.17L613.541 1003.53L417.75 1318.68L592.784 991.546L365.123 1284.51L573.393 977.458L316.356 1245.02L555.581 961.419L271.985 1200.64L539.542 943.607L232.494 1151.88L525.454 924.216L198.318 1099.25L513.47 903.459L169.829 1043.34L503.721 881.562L147.342 984.756L496.314 858.767L131.101 924.143L491.331 835.322L121.284 862.165L488.825 811.484L118 799.5L488.825 787.516L121.284 736.835L491.331 763.678L131.101 674.857L496.314 740.233L147.342 614.244L503.721 717.438L169.829 555.661L513.47 695.541L198.318 499.75L525.454 674.784L232.494 447.123L539.542 655.393L271.985 398.356L555.581 637.581L316.356 353.985L573.393 621.542L365.123 314.494L592.784 607.454L417.75 280.318L613.541 595.47L473.661 251.829L635.438 585.721L532.244 229.342L658.233 578.314L592.857 213.101L681.678 573.331L654.835 203.284L705.516 570.825L717.5 200Z" fill="#ED2AFF"/>
</g>
<defs>
<filter id="filter0_f_5_68" x="-82" y="0" width="1599" height="1599" filterUnits="userSpaceOnUse" color-interpolation-filters="sRGB">
<feFlood flood-opacity="0" result="BackgroundImageFix"/>
<feBlend mode="normal" in="SourceGraphic" in2="BackgroundImageFix" result="shape"/>
<feGaussianBlur stdDeviation="100" result="effect1_foregroundBlur_5_68"/>
</filter>
</defs>
</svg>
