<svg width="247" height="266" viewBox="0 0 247 266" fill="none" xmlns="http://www.w3.org/2000/svg">
<path d="M173.78 256.634L158.422 262.119H123.318L105.765 258.828H87.116L74.5003 264.313L70.1122 259.925L52.0114 258.828L49.8173 253.891L37.2016 251.149L23.4889 240.178L12.5187 237.436L7.58211 206.719L4.29106 200.137C3.19404 190.995 1 172.273 1 170.518C1 168.762 5.38808 155.159 7.58211 148.577C8.31346 141.447 9.77615 126.637 9.77615 124.443C9.77615 122.249 3.92538 116.215 1 113.473V103.051L4.29106 76.1741L7.58211 57.5248C9.59332 50.9427 13.9448 37.1202 15.2612 34.4874C16.5777 31.8545 23.1232 25.7112 26.2314 22.9687L42.1382 20.2262L53.1084 14.1925L62.4331 10.353L74.5003 3.22236H93.6981L106.314 1.02832L122.769 6.51341L138.676 10.353L146.355 12.547L162.262 25.1627L171.586 30.6478L182.557 47.1031L191.333 73.4316L196.818 76.7226L206.691 105.245L214.919 127.185L230.277 150.223L234.665 165.581L243.99 178.197L245.087 190.813L232.471 212.204L210.531 234.693L185.299 245.115L173.78 256.634Z" fill="white" fill-opacity="0.1" stroke="url(#paint0_linear_74_95)" stroke-width="2"/>
<defs>
<linearGradient id="paint0_linear_74_95" x1="197.653" y1="1.17188" x2="-31.7129" y2="232.012" gradientUnits="userSpaceOnUse">
<stop stop-color="#95359E"/>
<stop offset="0.430918" stop-color="#F15AFF"/>
<stop offset="1" stop-color="#E5ECED" stop-opacity="0"/>
</linearGradient>
</defs>
</svg>
