<svg width="357" height="313" viewBox="0 0 357 313" fill="none" xmlns="http://www.w3.org/2000/svg">
<path d="M135.416 311.456H112.927L93.7289 305.971L69.5944 301.583L57.5272 293.904L43.8145 270.867V256.605L31.1988 230.277L15.292 217.661L1.03076 179.814L7.06437 143.612L18.5831 95.3436L26.2622 57.4965L43.8145 24.0374L62.4638 1H76.7251L98.6654 11.9702L117.315 19.6493L127.188 30.6195L152.419 40.4927L167.229 33.9106L193.558 40.4927H211.658L229.759 48.1718H248.957L269.252 62.4331L291.741 85.4705L317.521 111.799L336.17 150.195L352.077 179.814L355.916 230.277L327.394 243.441L291.741 256.605L248.957 290.064L196.849 301.583H162.841L135.416 311.456Z" fill="white" fill-opacity="0.1" stroke="url(#paint0_linear_74_93)" stroke-width="2"/>
<defs>
<linearGradient id="paint0_linear_74_93" x1="-49.7773" y1="251.39" x2="460.135" y2="100.193" gradientUnits="userSpaceOnUse">
<stop stop-color="#95359E"/>
<stop offset="0.430918" stop-color="#F15AFF"/>
<stop offset="1" stop-color="#E5ECED" stop-opacity="0"/>
</linearGradient>
</defs>
</svg>
