<svg width="352" height="331" viewBox="0 0 352 331" fill="none" xmlns="http://www.w3.org/2000/svg">
<path d="M195.172 329.557H184.202L142.515 313.65L126.609 284.579L115.09 273.609L95.3436 242.893L70.1122 210.531L50.3659 200.657L38.2986 181.46L22.3919 164.456L18.5523 152.389L9.77615 137.579L4.83957 108.508L1 99.7317V79.4368L9.77615 44.3322L22.3919 36.1046L25.6829 24.0374L38.2986 13.6157L44.8808 1H55.8509L87.116 13.6157L99.7317 9.77615L124.415 16.9068H138.127L168.295 28.4255L189.687 32.8135L203.4 38.8471L228.083 54.7539H235.762L255.508 66.8211L277.449 82.1794L295.001 99.7317L317.49 111.25L321.878 117.833L332.3 133.191L347.109 149.098L350.401 172.683L347.109 188.59L339.43 203.4V252.766L332.3 264.285L326.815 266.479L302.132 286.773L271.415 301.583L262.091 298.841L245.087 310.359H235.762L228.083 318.587L203.4 329.557L199.56 325.169L195.172 329.557Z" fill="white" fill-opacity="0.1" stroke="url(#paint0_linear_74_94)" stroke-width="2"/>
<defs>
<linearGradient id="paint0_linear_74_94" x1="-27.5" y1="18.6274" x2="364.08" y2="327.88" gradientUnits="userSpaceOnUse">
<stop stop-color="#95359E"/>
<stop offset="0.430918" stop-color="#F15AFF"/>
<stop offset="1" stop-color="#E5ECED" stop-opacity="0"/>
</linearGradient>
</defs>
</svg>
