<svg width="260" height="277" viewBox="0 0 260 277" fill="none" xmlns="http://www.w3.org/2000/svg">
<path d="M104.144 273.154L91.5287 275.348H71.7821L57.5209 270.412H49.2932L26.2558 267.669L19.1252 261.087L5.96122 251.763L1.02441 235.307L3.76696 218.852C4.68122 209.162 6.40003 188.574 5.96122 183.747C5.52241 178.921 11.2635 160.527 14.1889 151.934L21.868 123.96L31.7412 93.2433L43.2599 65.2694L55.3271 42.7805L69.5883 13.161L79.4615 1.09375L114.018 7.67586L131.021 10.4184L158.995 24.1311H174.354L203.425 31.8103H211.652L226.462 35.1013L242.917 62.5268L252.79 78.4336L255.533 109.15L258.276 123.96V176.068L252.79 189.781V205.688L226.462 218.852L220.977 227.628L200.682 237.501V247.923L190.26 257.248L178.193 264.927L163.932 270.412L151.316 273.154L135.958 275.348L117.857 273.154H104.144Z" fill="white" fill-opacity="0.1" stroke="url(#paint0_linear_74_97)" stroke-width="2"/>
<defs>
<linearGradient id="paint0_linear_74_97" x1="258.062" y1="193.103" x2="45.203" y2="-13.4045" gradientUnits="userSpaceOnUse">
<stop stop-color="#95359E"/>
<stop offset="0.430918" stop-color="#F15AFF"/>
<stop offset="1" stop-color="#E5ECED" stop-opacity="0"/>
</linearGradient>
</defs>
</svg>
