<svg width="260" height="277" viewBox="0 0 260 277" fill="none" xmlns="http://www.w3.org/2000/svg">
<path d="M155.131 3.20248L167.747 1.00845H187.493L201.755 5.94504H209.982L233.02 8.68759L240.15 15.2697L253.314 24.5943L258.251 41.0496L255.508 57.5049C254.594 67.1953 252.875 87.7826 253.314 92.6095C253.753 97.4364 248.012 115.83 245.087 124.423L237.407 152.397L227.534 183.114L216.016 211.088L203.948 233.576L189.687 263.196L179.814 275.263L145.258 268.681L128.254 265.939L100.28 252.226H84.9218L55.8508 244.547H47.6231L32.8134 241.256L16.3581 213.83L6.48491 197.923L3.74236 167.207L0.999817 152.397V100.289L6.48491 86.5759V70.6691L32.8134 57.5049L38.2985 48.7288L58.5933 38.8556V28.4339L69.015 19.1093L81.0822 11.4301L95.3434 5.94504L107.959 3.20248L123.317 1.00845L141.418 3.20248H155.131Z" fill="white" fill-opacity="0.1" stroke="url(#paint0_linear_74_96)" stroke-width="2"/>
<defs>
<linearGradient id="paint0_linear_74_96" x1="287.766" y1="78.8281" x2="-81.9066" y2="120.452" gradientUnits="userSpaceOnUse">
<stop stop-color="#95359E"/>
<stop offset="0.430918" stop-color="#F15AFF"/>
<stop offset="1" stop-color="#E5ECED" stop-opacity="0"/>
</linearGradient>
</defs>
</svg>
