<svg width="529" height="529" viewBox="0 0 529 529" fill="none" xmlns="http://www.w3.org/2000/svg">
<g filter="url(#filter0_f_5_69)">
<path d="M264.17 51.6706L268.418 183.114L286.383 52.8347L276.868 184.002L308.352 56.3142L285.178 185.769L329.837 62.0711L293.258 188.394L350.602 70.0422L301.02 191.85L370.42 80.1402L308.378 196.098L389.075 92.2545L315.251 201.091L406.361 106.252L321.565 206.776L422.089 121.98L327.25 213.09L436.087 139.266L332.243 219.963L448.201 157.921L336.491 227.321L458.299 177.739L339.947 235.083L466.27 198.504L342.572 243.163L472.027 219.989L344.339 251.473L475.506 241.958L345.227 259.923L476.67 264.171L345.227 268.419L475.506 286.383L344.339 276.868L472.027 308.352L342.572 285.178L466.27 329.837L339.947 293.259L458.299 350.602L336.491 301.02L448.201 370.421L332.243 308.378L436.087 389.075L327.25 315.251L422.089 406.361L321.565 321.565L406.361 422.089L315.251 327.25L389.075 436.087L308.378 332.244L370.42 448.201L301.02 336.492L350.602 458.299L293.258 339.947L329.837 466.27L285.178 342.573L308.352 472.027L276.868 344.339L286.383 475.507L268.418 345.227L264.17 476.671L259.922 345.227L241.958 475.507L251.473 344.339L219.989 472.027L243.163 342.573L198.504 466.27L235.082 339.947L177.739 458.299L227.321 336.492L157.92 448.201L219.963 332.244L139.266 436.087L213.09 327.25L121.98 422.089L206.776 321.565L106.252 406.361L201.091 315.251L92.2543 389.075L196.097 308.378L80.14 370.421L191.849 301.02L70.042 350.602L188.394 293.259L62.0709 329.837L185.768 285.178L56.314 308.352L184.002 276.868L52.8345 286.383L183.114 268.419L51.6704 264.171L183.114 259.923L52.8345 241.958L184.002 251.473L56.314 219.989L185.768 243.163L62.0709 198.504L188.394 235.083L70.042 177.739L191.849 227.321L80.14 157.921L196.097 219.963L92.2543 139.266L201.091 213.09L106.252 121.98L206.776 206.776L121.98 106.252L213.09 201.091L139.266 92.2545L219.963 196.098L157.92 80.1402L227.321 191.85L177.739 70.0422L235.082 188.394L198.504 62.0711L243.163 185.769L219.989 56.3142L251.473 184.002L241.958 52.8347L259.922 183.114L264.17 51.6706Z" fill="#00FEB6"/>
</g>
<g filter="url(#filter1_f_5_69)">
<circle cx="264.67" cy="263.671" r="81" fill="#06FFDA"/>
</g>
<defs>
<filter id="filter0_f_5_69" x="-0.000179291" y="3.8147e-06" width="528.341" height="528.341" filterUnits="userSpaceOnUse" color-interpolation-filters="sRGB">
<feFlood flood-opacity="0" result="BackgroundImageFix"/>
<feBlend mode="normal" in="SourceGraphic" in2="BackgroundImageFix" result="shape"/>
<feGaussianBlur stdDeviation="25.8353" result="effect1_foregroundBlur_5_69"/>
</filter>
<filter id="filter1_f_5_69" x="173.67" y="172.671" width="182" height="182" filterUnits="userSpaceOnUse" color-interpolation-filters="sRGB">
<feFlood flood-opacity="0" result="BackgroundImageFix"/>
<feBlend mode="normal" in="SourceGraphic" in2="BackgroundImageFix" result="shape"/>
<feGaussianBlur stdDeviation="5" result="effect1_foregroundBlur_5_69"/>
</filter>
</defs>
</svg>
