<svg width="225" height="73" viewBox="0 0 225 73" fill="none" xmlns="http://www.w3.org/2000/svg">
<path d="M78.8149 33.7201V29.0235H71.6084V61.3618H79.1177V45.7377C79.1177 42.3464 79.9655 39.8235 81.6611 38.1679C83.3568 36.5132 85.658 35.685 88.5648 35.685C88.807 35.685 89.0688 35.6952 89.3521 35.7148C89.6344 35.7353 89.9167 35.766 90.1999 35.8061V28.5996C87.172 28.5996 84.608 29.1754 82.5089 30.326C80.9577 31.1766 79.727 32.3086 78.8149 33.721V33.7201Z" fill="white"/>
<path d="M123.024 30.659C120.56 29.2867 117.755 28.6 114.606 28.6C111.941 28.6 109.539 29.1963 107.4 30.387C106.213 31.0476 105.164 31.901 104.25 32.9454V16.4278H96.7412V61.3622H103.948V57.2387C104.888 58.3781 105.997 59.2995 107.278 59.9992C109.459 61.1908 111.9 61.7852 114.606 61.7852C117.755 61.7852 120.56 61.0995 123.024 59.7262C125.486 58.3539 127.434 56.4263 128.868 53.9424C130.301 51.4595 131.017 48.5434 131.017 45.1922C131.017 41.841 130.3 38.9751 128.868 36.4717C127.434 33.9693 125.486 32.0314 123.024 30.6581V30.659ZM122.055 50.5521C121.207 52.107 120.066 53.2977 118.633 54.125C117.199 54.9533 115.554 55.3669 113.698 55.3669C111.842 55.3669 110.306 54.9533 108.853 54.125C107.4 53.2977 106.249 52.107 105.401 50.5521C104.553 48.998 104.129 47.212 104.129 45.1931C104.129 43.1742 104.553 41.3472 105.401 39.8332C106.249 38.3192 107.4 37.1491 108.853 36.3208C110.306 35.4935 111.921 35.0798 113.698 35.0798C115.474 35.0798 117.2 35.4944 118.633 36.3208C120.066 37.1491 121.206 38.3192 122.055 39.8332C122.903 41.3472 123.326 43.1332 123.326 45.1931C123.326 47.253 122.903 48.999 122.055 50.5521Z" fill="white"/>
<path d="M145.792 29.0237H138.283V61.3619H145.792V29.0237Z" fill="white"/>
<path d="M168.865 55.5489C167.411 55.5489 166.28 55.125 165.473 54.2771C164.666 53.4293 164.262 52.2386 164.262 50.7042V35.0801H172.983V29.0242H164.262V21.8783H156.753V29.0242H151.424V35.0801H156.753V50.9464C156.753 54.4998 157.722 57.1942 159.66 59.0305C161.598 60.8678 164.342 61.7864 167.896 61.7864C169.228 61.7864 170.54 61.6047 171.832 61.2414C173.123 60.878 174.234 60.333 175.163 59.6063L172.983 54.2166C171.893 55.1054 170.519 55.5489 168.865 55.5489Z" fill="white"/>
<path d="M203.504 31.9909C200.96 29.7307 197.327 28.5996 192.603 28.5996C190.019 28.5996 187.536 28.9434 185.155 29.6291C182.772 30.3158 180.693 31.3248 178.917 32.6571L181.885 38.1679C183.136 37.1589 184.629 36.3716 186.366 35.8061C188.102 35.2415 189.858 34.9583 191.634 34.9583C194.379 34.9583 196.428 35.5741 197.781 36.8058C199.133 38.0375 199.81 39.7638 199.81 41.984V42.4685H191.392C188.122 42.4685 185.498 42.8924 183.52 43.7402C181.541 44.588 180.118 45.7386 179.25 47.192C178.381 48.6455 177.947 50.2805 177.947 52.0973C177.947 53.9141 178.441 55.6199 179.431 57.0929C180.42 58.5668 181.823 59.7174 183.64 60.5447C185.457 61.3721 187.576 61.7867 189.998 61.7867C192.905 61.7867 195.287 61.2621 197.144 60.2121C198.42 59.491 199.43 58.5696 200.172 57.4479V61.3628H207.318V42.4079C207.318 37.7253 206.046 34.253 203.503 31.9918L203.504 31.9909ZM196.57 55.0032C195.097 55.851 193.431 56.2749 191.575 56.2749C189.719 56.2749 188.123 55.8715 187.033 55.0637C185.943 54.2569 185.398 53.1864 185.398 51.8541C185.398 50.6029 185.852 49.5631 186.76 48.7349C187.668 47.9076 189.395 47.4939 191.938 47.4939H199.811V51.2485C199.124 52.9041 198.044 54.1553 196.57 55.0032Z" fill="white"/>
<path d="M224.579 16.4278H217.07V61.3622H224.579V16.4278Z" fill="white"/>
<path d="M142.038 10.2766L139.776 16.3902L133.663 18.6523L139.776 20.9144L142.038 27.028L144.3 20.9144L150.415 18.6523L144.3 16.3902L142.038 10.2766Z" fill="white"/>
<path d="M0.578613 71.8761L23.7781 50.8194C23.7781 50.8194 9.67078 36.8947 24.5095 21.7681C24.5617 21.742 32.765 12.5986 46.455 17.5616C46.455 17.6659 54.8149 13.7473 54.8149 13.7473C54.8149 13.7473 36.2141 0.266982 19.3369 16.2032C19.3369 16.2032 7.009 26.4935 11.3804 43.98C11.3804 44.0592 16.0695 52.8821 10.745 59.1607C10.745 59.4784 0.579546 71.8761 0.579546 71.8761H0.578613Z" fill="white" stroke="white" stroke-width="0.446797" stroke-miterlimit="10"/>
<path d="M22.2031 59.3537C22.2031 59.3537 28.7295 65.8736 42.0552 64.5021C42.3496 64.5021 71.8425 61.1705 65.5714 28.7372C65.3758 28.4428 62.0442 14.9214 74.6841 0.2234C74.7819 0.2234 29.4152 45.2967 29.4152 45.2967L50.9722 30.1086C50.9722 30.1086 57.929 23.3475 58.6147 34.0281C59.3004 44.7088 53.0293 61.3662 30.6888 55.4873C30.4931 55.5851 22.2031 59.3537 22.2031 59.3537Z" fill="white" stroke="white" stroke-width="0.446797" stroke-miterlimit="10"/>
</svg>
