<svg width="505" height="505" viewBox="0 0 505 505" fill="none" xmlns="http://www.w3.org/2000/svg">
<g filter="url(#filter0_f_5_20)">
<path d="M252.5 40L256.748 171.443L274.712 41.1641L265.197 172.332L296.681 44.6436L273.508 174.098L318.166 50.4005L281.588 176.723L338.932 58.3716L289.349 180.179L358.75 68.4696L296.707 184.427L377.404 80.5839L303.581 189.421L394.69 94.5817L309.894 195.106L410.418 110.31L315.579 201.419L424.416 127.596L320.573 208.293L436.53 146.25L324.821 215.651L446.628 166.068L328.277 223.412L454.599 186.834L330.902 231.492L460.356 208.319L332.668 239.803L463.836 230.288L333.557 248.252L465 252.5L333.557 256.748L463.836 274.712L332.668 265.197L460.356 296.681L330.902 273.508L454.599 318.166L328.277 281.588L446.628 338.932L324.821 289.349L436.53 358.75L320.573 296.707L424.416 377.404L315.579 303.581L410.418 394.69L309.894 309.894L394.69 410.418L303.581 315.579L377.404 424.416L296.707 320.573L358.75 436.53L289.349 324.821L338.932 446.628L281.588 328.277L318.166 454.599L273.508 330.902L296.681 460.356L265.197 332.668L274.712 463.836L256.748 333.557L252.5 465L248.252 333.557L230.288 463.836L239.803 332.668L208.319 460.356L231.492 330.902L186.834 454.599L223.412 328.277L166.068 446.628L215.651 324.821L146.25 436.53L208.293 320.573L127.596 424.416L201.419 315.579L110.31 410.418L195.106 309.894L94.5817 394.69L189.421 303.581L80.5839 377.404L184.427 296.707L68.4696 358.75L180.179 289.349L58.3716 338.932L176.723 281.588L50.4005 318.166L174.098 273.508L44.6436 296.681L172.332 265.197L41.1641 274.712L171.443 256.748L40 252.5L171.443 248.252L41.1641 230.288L172.332 239.803L44.6436 208.319L174.098 231.492L50.4005 186.834L176.723 223.412L58.3716 166.068L180.179 215.651L68.4696 146.25L184.427 208.293L80.5839 127.596L189.421 201.419L94.5817 110.31L195.106 195.106L110.31 94.5817L201.419 189.421L127.596 80.5839L208.293 184.427L146.25 68.4696L215.651 180.179L166.068 58.3716L223.412 176.723L186.834 50.4005L231.492 174.098L208.319 44.6436L239.803 172.332L230.288 41.1641L248.252 171.443L252.5 40Z" fill="#CB3DFF"/>
</g>
<g filter="url(#filter1_f_5_20)">
<circle cx="253" cy="253" r="81" fill="#ED2BFF"/>
</g>
<defs>
<filter id="filter0_f_5_20" x="0" y="0" width="505" height="505" filterUnits="userSpaceOnUse" color-interpolation-filters="sRGB">
<feFlood flood-opacity="0" result="BackgroundImageFix"/>
<feBlend mode="normal" in="SourceGraphic" in2="BackgroundImageFix" result="shape"/>
<feGaussianBlur stdDeviation="20" result="effect1_foregroundBlur_5_20"/>
</filter>
<filter id="filter1_f_5_20" x="162" y="162" width="182" height="182" filterUnits="userSpaceOnUse" color-interpolation-filters="sRGB">
<feFlood flood-opacity="0" result="BackgroundImageFix"/>
<feBlend mode="normal" in="SourceGraphic" in2="BackgroundImageFix" result="shape"/>
<feGaussianBlur stdDeviation="5" result="effect1_foregroundBlur_5_20"/>
</filter>
</defs>
</svg>
