<svg width="629" height="629" viewBox="0 0 629 629" fill="none" xmlns="http://www.w3.org/2000/svg">
<g filter="url(#filter0_f_5_75)">
<path d="M314.5 40L319.987 209.794L343.193 41.5038L330.902 210.941L371.572 45.9985L341.637 213.223L399.325 53.435L352.075 216.614L426.149 63.7318L362.101 221.078L451.75 76.776L371.605 226.566L475.847 92.4248L380.484 233.017L498.176 110.507L388.64 240.36L518.493 130.824L395.983 248.516L536.575 153.153L402.434 257.395L552.224 177.25L407.922 266.899L565.268 202.851L412.386 276.925L575.565 229.675L415.777 287.363L583.002 257.428L418.059 298.098L587.496 285.807L419.206 309.013L589 314.5L419.206 319.987L587.496 343.193L418.059 330.902L583.002 371.572L415.777 341.637L575.565 399.325L412.386 352.075L565.268 426.149L407.922 362.101L552.224 451.75L402.434 371.605L536.575 475.847L395.983 380.484L518.493 498.176L388.64 388.64L498.176 518.493L380.484 395.983L475.847 536.575L371.605 402.434L451.75 552.224L362.101 407.922L426.149 565.268L352.075 412.386L399.325 575.565L341.637 415.777L371.572 583.002L330.902 418.059L343.193 587.496L319.987 419.206L314.5 589L309.013 419.206L285.807 587.496L298.098 418.059L257.428 583.002L287.363 415.777L229.675 575.565L276.925 412.386L202.851 565.268L266.899 407.922L177.25 552.224L257.395 402.434L153.153 536.575L248.516 395.983L130.824 518.493L240.36 388.64L110.507 498.176L233.017 380.484L92.4248 475.847L226.566 371.605L76.776 451.75L221.078 362.101L63.7318 426.149L216.614 352.075L53.435 399.325L213.223 341.637L45.9985 371.572L210.941 330.902L41.5038 343.193L209.794 319.987L40 314.5L209.794 309.013L41.5038 285.807L210.941 298.098L45.9985 257.428L213.223 287.363L53.435 229.675L216.614 276.925L63.7318 202.851L221.078 266.899L76.776 177.25L226.566 257.395L92.4248 153.153L233.017 248.516L110.507 130.824L240.36 240.36L130.824 110.507L248.516 233.017L153.153 92.4248L257.395 226.566L177.25 76.776L266.899 221.078L202.851 63.7318L276.925 216.614L229.675 53.435L287.363 213.223L257.428 45.9985L298.098 210.941L285.807 41.5038L309.013 209.794L314.5 40Z" fill="#AC1EB6"/>
</g>
<g filter="url(#filter1_f_5_75)">
<circle cx="315.146" cy="315.146" r="104.633" fill="#F15AFF"/>
</g>
<defs>
<filter id="filter0_f_5_75" x="0" y="0" width="629" height="629" filterUnits="userSpaceOnUse" color-interpolation-filters="sRGB">
<feFlood flood-opacity="0" result="BackgroundImageFix"/>
<feBlend mode="normal" in="SourceGraphic" in2="BackgroundImageFix" result="shape"/>
<feGaussianBlur stdDeviation="20" result="effect1_foregroundBlur_5_75"/>
</filter>
<filter id="filter1_f_5_75" x="200.513" y="200.513" width="229.266" height="229.266" filterUnits="userSpaceOnUse" color-interpolation-filters="sRGB">
<feFlood flood-opacity="0" result="BackgroundImageFix"/>
<feBlend mode="normal" in="SourceGraphic" in2="BackgroundImageFix" result="shape"/>
<feGaussianBlur stdDeviation="5" result="effect1_foregroundBlur_5_75"/>
</filter>
</defs>
</svg>
