<svg width="1374" height="218" viewBox="0 0 1374 218" fill="none" xmlns="http://www.w3.org/2000/svg">
<path d="M115.2 217.2C98.5998 217.2 83.1998 214.5 68.9998 209.1C54.9998 203.7 42.7998 196.1 32.3998 186.3C22.1998 176.5 14.1998 165 8.39981 151.8C2.79981 138.6 -0.000195071 124.2 -0.000195071 108.6C-0.000195071 93 2.79981 78.6 8.39981 65.4C14.1998 52.2 22.2998 40.7 32.6998 30.9C43.0998 21.1 55.2998 13.5 69.2998 8.09996C83.2998 2.69997 98.4998 -2.81334e-05 114.9 -2.81334e-05C131.5 -2.81334e-05 146.7 2.69997 160.5 8.09996C174.5 13.5 186.6 21.1 196.8 30.9C207.2 40.7 215.3 52.2 221.1 65.4C226.9 78.4 229.8 92.8 229.8 108.6C229.8 124.2 226.9 138.7 221.1 152.1C215.3 165.3 207.2 176.8 196.8 186.6C186.6 196.2 174.5 203.7 160.5 209.1C146.7 214.5 131.6 217.2 115.2 217.2ZM114.9 175.8C124.3 175.8 132.9 174.2 140.7 171C148.7 167.8 155.7 163.2 161.7 157.2C167.7 151.2 172.3 144.1 175.5 135.9C178.9 127.7 180.6 118.6 180.6 108.6C180.6 98.6 178.9 89.5 175.5 81.3C172.3 73.1 167.7 66 161.7 60C155.9 54 149 49.4 141 46.2C133 43 124.3 41.4 114.9 41.4C105.5 41.4 96.7998 43 88.7998 46.2C80.9998 49.4 74.0998 54 68.0998 60C62.0998 66 57.3998 73.1 53.9998 81.3C50.7998 89.5 49.1998 98.6 49.1998 108.6C49.1998 118.4 50.7998 127.5 53.9998 135.9C57.3998 144.1 61.9998 151.2 67.7998 157.2C73.7998 163.2 80.7998 167.8 88.7998 171C96.7998 174.2 105.5 175.8 114.9 175.8ZM266.325 213.6V3.59996H356.025C385.225 3.59996 407.925 10.4 424.125 24C440.325 37.4 448.425 56 448.425 79.8C448.425 95.4 444.725 108.9 437.325 120.3C429.925 131.5 419.425 140.1 405.825 146.1C392.225 152.1 376.025 155.1 357.225 155.1H293.325L314.925 133.8V213.6H266.325ZM399.825 213.6L347.325 137.4H399.225L452.325 213.6H399.825ZM314.925 139.2L293.325 116.4H354.525C369.525 116.4 380.725 113.2 388.125 106.8C395.525 100.2 399.225 91.2 399.225 79.8C399.225 68.2 395.525 59.2 388.125 52.8C380.725 46.4 369.525 43.2 354.525 43.2H293.325L314.925 20.1V139.2ZM486.93 213.6V3.59996H589.53C615.93 3.59996 635.73 8.59996 648.93 18.6C662.33 28.6 669.03 41.8 669.03 58.2C669.03 69.2 666.33 78.8 660.93 87C655.53 95 648.13 101.2 638.73 105.6C629.33 110 618.53 112.2 606.33 112.2L612.03 99.9C625.23 99.9 636.93 102.1 647.13 106.5C657.33 110.7 665.23 117 670.83 125.4C676.63 133.8 679.53 144.1 679.53 156.3C679.53 174.3 672.43 188.4 658.23 198.6C644.03 208.6 623.13 213.6 595.53 213.6H486.93ZM535.23 177H591.93C604.53 177 614.03 175 620.43 171C627.03 166.8 630.33 160.2 630.33 151.2C630.33 142.4 627.03 135.9 620.43 131.7C614.03 127.3 604.53 125.1 591.93 125.1H531.63V89.7H583.53C595.33 89.7 604.33 87.7 610.53 83.7C616.93 79.5 620.13 73.2 620.13 64.8C620.13 56.6 616.93 50.5 610.53 46.5C604.33 42.3 595.33 40.2 583.53 40.2H535.23V177ZM716.325 213.6V3.59996H764.925V213.6H716.325ZM858.262 213.6V43.2H791.062V3.59996H974.062V43.2H906.862V213.6H858.262ZM962.065 213.6L1055.66 3.59996H1103.66L1197.56 213.6H1146.56L1069.76 28.2H1088.96L1011.86 213.6H962.065ZM1008.86 168.6L1021.76 131.7H1129.76L1142.96 168.6H1008.86ZM1219.35 213.6V3.59996H1267.95V174H1373.25V213.6H1219.35Z" fill="white"/>
</svg>
