<svg width="1131" height="287" viewBox="0 0 1131 287" fill="none" xmlns="http://www.w3.org/2000/svg">
<path d="M25.1872 286.189C21.4091 286.189 17.4211 285.874 13.2233 285.244C9.23531 284.615 4.82757 283.775 3.28509e-05 282.726L3.14842 239.593C6.08692 240.432 9.13037 240.852 12.2788 240.852C20.8844 240.852 27.6009 237.389 32.4285 230.462C37.256 223.326 40.7192 213.146 42.8182 199.923C44.9171 186.7 46.2814 170.643 46.9111 151.752L50.0595 62.3381H219.443V282.726H169.069V92.2479L180.718 103.897H83.4324L93.8221 91.6182L91.9331 149.863C91.3034 171.482 89.8341 190.688 87.5253 207.479C85.2165 224.27 81.6483 238.543 76.8208 250.297C71.9932 262.051 65.3816 270.972 56.9859 277.058C48.5902 283.145 37.9906 286.189 25.1872 286.189ZM274.486 282.726V62.3381H441.036V103.267H325.175V241.796H445.128V282.726H274.486ZM321.397 190.792V151.123H427.497V190.792H321.397ZM533.866 282.726V92.2479L545.515 103.897H463.657V62.3381H654.765V103.897H572.906L584.241 92.2479V282.726H533.866ZM650.849 282.726L749.079 62.3381H799.453L897.997 282.726H844.475L763.876 88.1549H784.026L703.112 282.726H650.849ZM699.964 235.5L713.502 196.774H826.844L840.697 235.5H699.964ZM927.223 282.726V62.3381H977.912V205.905L1083.07 62.3381H1130.92V282.726H1080.55V139.474L975.394 282.726H927.223ZM1028.92 48.1704C1007.93 48.1704 992.5 43.9725 982.635 35.5768C972.98 27.1811 968.047 15.3222 967.838 -1.64367e-05H1002.78C1002.99 7.55613 1005.2 13.3282 1009.4 17.3161C1013.8 21.0942 1020.31 22.9832 1028.92 22.9832C1037.31 22.9832 1043.71 21.0942 1048.12 17.3161C1052.53 13.3282 1054.84 7.55613 1055.05 -1.64367e-05H1090C1089.79 15.3222 1084.75 27.1811 1074.88 35.5768C1065.02 43.9725 1049.7 48.1704 1028.92 48.1704Z" fill="white"/>
</svg>
